<svg width="18" height="18" viewBox="0 0 18 18" fill="none" xmlns="http://www.w3.org/2000/svg">
<path d="M0.666992 14.8333C0.666992 16.25 1.75033 17.3333 3.16699 17.3333H14.8337C16.2503 17.3333 17.3337 16.25 17.3337 14.8333V8.16666H0.666992V14.8333ZM14.8337 2.33332H13.167V1.49999C13.167 0.99999 12.8337 0.666656 12.3337 0.666656C11.8337 0.666656 11.5003 0.99999 11.5003 1.49999V2.33332H6.50033V1.49999C6.50033 0.99999 6.16699 0.666656 5.66699 0.666656C5.16699 0.666656 4.83366 0.99999 4.83366 1.49999V2.33332H3.16699C1.75033 2.33332 0.666992 3.41666 0.666992 4.83332V6.49999H17.3337V4.83332C17.3337 3.41666 16.2503 2.33332 14.8337 2.33332Z" fill="#9F9F9F"/>
</svg>
